<?xml version="1.0" encoding="UTF-8"?>
<svg version="1.1" xmlns="http://www.w3.org/2000/svg" width="512" height="512">
<path d="M0 0 C2.4893836 0.54006859 4.65362553 0.44937447 7.16870117 0.10375977 C7.95760742 0.00450195 8.74651367 -0.09475586 9.55932617 -0.19702148 C11.12711598 -0.45399366 12.68866165 -0.75262957 14.24047852 -1.09301758 C33.96413279 -4.70692324 54.36990322 -0.82244493 70.91870117 10.41625977 C86.86964965 22.47146045 97.37015762 38.70053366 100.91870117 58.41625977 C101.29842817 63.77072208 101.27173256 69.10031625 101.21166992 74.46313477 C101.20724502 75.80118431 101.20419317 77.13923911 101.20251465 78.47729492 C101.1869487 83.37369705 101.14506594 88.26998714 101.10620117 93.16625977 C101.04432617 104.13875977 100.98245117 115.11125977 100.91870117 126.41625977 C130.28870117 126.41625977 159.65870117 126.41625977 189.91870117 126.41625977 C193.87314838 167.6316011 197.82386176 208.8472925 201.76635155 250.06377899 C202.23197146 254.93152051 202.69763674 259.79925769 203.16333008 264.66699219 C203.25603914 265.63605657 203.34874819 266.60512096 203.44426662 267.60355093 C204.94483048 283.28742524 206.44906865 298.97094506 207.95466882 314.65433661 C209.49986486 330.75104802 211.04110288 346.84813487 212.57867956 362.94557589 C213.52730636 372.87577563 214.47900648 382.80567089 215.43465984 392.73519691 C216.08999546 399.54743451 216.7414806 406.36003355 217.3899647 413.17292676 C217.76402311 417.10154108 218.13975248 421.02997625 218.5200634 424.95799065 C218.86874223 428.55968727 219.21254401 432.16181617 219.55259937 435.76433691 C219.73403294 437.67325941 219.92056959 439.58169481 220.10733461 441.49010307 C220.26931251 443.22111071 220.26931251 443.22111071 220.43456268 444.9870882 C220.52873333 445.97018414 220.62290397 446.95328007 220.71992826 447.96616679 C220.99700322 452.77534509 220.91870117 457.59910642 220.91870117 462.41625977 C88.91870117 462.41625977 -43.08129883 462.41625977 -179.08129883 462.41625977 C-179.08129883 450.04125977 -179.08129883 450.04125977 -178.59716034 444.9870882 C-178.48917508 443.83308311 -178.38118981 442.67907801 -178.26993227 441.49010307 C-178.14931287 440.25758613 -178.02869348 439.02506919 -177.90441895 437.75520325 C-177.77610707 436.40519156 -177.64825294 435.0551363 -177.52081251 433.70504206 C-177.17202066 430.02392718 -176.81680215 426.34345746 -176.46046615 422.66306627 C-176.07630937 418.68335174 -175.69820795 414.70306128 -175.3193512 410.72283936 C-174.6630411 403.83641581 -174.00294038 396.95036421 -173.34022522 390.06455421 C-172.38206922 380.10896691 -171.42969167 370.15283341 -170.47869986 360.19655951 C-168.93542707 344.04113034 -167.3875159 327.88614912 -165.83666992 311.73144531 C-164.33064531 296.04352766 -162.82681635 280.35540208 -161.32592773 264.66699219 C-161.18703244 263.21516678 -161.18703244 263.21516678 -161.04533118 261.73401157 C-160.58078915 256.87816882 -160.11629015 252.02232195 -159.65181255 247.16647303 C-155.80164612 206.91576153 -151.94365732 166.66580304 -148.08129883 126.41625977 C-129.27129883 126.41625977 -110.46129883 126.41625977 -91.08129883 126.41625977 C-91.12770508 121.6815332 -91.17411133 116.94680664 -91.22192383 112.06860352 C-91.24240358 109.03798212 -91.26166204 106.00744813 -91.27661133 102.97680664 C-91.3003637 98.18454895 -91.3282131 93.39260187 -91.38305664 88.60058594 C-91.42707294 84.72962139 -91.45055103 80.8589907 -91.4608078 76.98779488 C-91.46810067 75.52365436 -91.48233592 74.05952851 -91.50421906 72.59553337 C-91.78745081 52.82972999 -86.12373834 34.92591359 -72.28125 20.49291992 C-53.0344173 1.22302924 -26.81296896 -6.72660899 0 0 Z M-53.08129883 26.41625977 C-53.78899414 26.91641602 -54.49668945 27.41657227 -55.22583008 27.93188477 C-65.65681465 36.07916265 -72.58923665 49.48218429 -74.36070251 62.46377563 C-75.13483763 69.53477985 -75.21022284 76.53470016 -75.17895508 83.64282227 C-75.17754013 84.87165131 -75.17612518 86.10048035 -75.17466736 87.36654663 C-75.16910842 91.25814334 -75.15656363 95.14968069 -75.14379883 99.04125977 C-75.13877852 101.69360268 -75.13421654 104.3459465 -75.13012695 106.99829102 C-75.12000704 113.47098806 -75.10042369 119.94355813 -75.08129883 126.41625977 C-64.52129883 126.41625977 -53.96129883 126.41625977 -43.08129883 126.41625977 C-43.05551758 121.6815332 -43.02973633 116.94680664 -43.00317383 112.06860352 C-42.97795598 109.03795327 -42.95158545 106.00739799 -42.92114258 102.97680664 C-42.87311253 98.18473169 -42.82895555 93.39287707 -42.81030273 88.60058594 C-42.79496473 84.72937359 -42.76022501 80.85874462 -42.71298981 76.98779488 C-42.69835007 75.52375981 -42.69026804 74.05964138 -42.68941498 72.59553337 C-42.66461407 51.33864352 -36.18632652 33.75583722 -21.20629883 18.61157227 C-18.96538106 16.80572762 -18.96538106 16.80572762 -19.08129883 15.41625977 C-32.02469512 14.36442621 -42.77938086 18.84750371 -53.08129883 26.41625977 Z M28.91870117 15.41625977 C29.74370117 16.34438477 30.56870117 17.27250977 31.41870117 18.22875977 C46.02555793 35.41937657 52.33439198 51.9828223 52.43041992 74.46313477 C52.44730774 75.97057517 52.46546333 77.47800184 52.4848175 78.9854126 C52.53187923 82.91104843 52.56196964 86.83662862 52.58825684 90.76245117 C52.62358643 95.495175 52.68047148 100.22768514 52.73365021 104.9602356 C52.81164886 112.11221459 52.86264232 119.2639239 52.91870117 126.41625977 C63.47870117 126.41625977 74.03870117 126.41625977 84.91870117 126.41625977 C84.9648617 118.69719386 85.00461294 110.97861594 85.02856445 103.25952148 C85.03856005 100.63906217 85.052161 98.01861384 85.06958008 95.39819336 C85.09411368 91.60991693 85.10524905 87.82178924 85.11401367 84.03344727 C85.12433624 82.88077362 85.13465881 81.72809998 85.14529419 80.54049683 C85.14782716 61.75883139 81.74093848 45.69277638 68.91870117 31.41625977 C59.29376578 22.05956028 46.99794612 15.36733397 33.41870117 15.29125977 C31.91845601 15.32289144 30.41826002 15.36094817 28.91870117 15.41625977 Z M-11.28442383 31.44360352 C-25.05889147 46.61413206 -27.26593751 63.95465747 -27.17895508 83.64282227 C-27.177948 84.73361084 -27.17694092 85.82439941 -27.17590332 86.94824219 C-27.17071558 90.97925891 -27.15675471 95.01026052 -27.14379883 99.04125977 C-27.12317383 108.07500977 -27.10254883 117.10875977 -27.08129883 126.41625977 C-5.96129883 126.41625977 15.15870117 126.41625977 36.91870117 126.41625977 C36.95995117 117.46500977 37.00120117 108.51375977 37.04370117 99.29125977 C37.06190918 96.49512207 37.08011719 93.69898437 37.09887695 90.81811523 C37.10472812 88.55656119 37.10982219 86.295005 37.11401367 84.03344727 C37.12424561 82.89593018 37.13447754 81.75841309 37.14501953 80.58642578 C37.14901222 61.83275784 33.78688951 45.64648383 20.91870117 31.41625977 C7.7569939 19.29106139 1.56684261 19.61770408 -11.28442383 31.44360352 Z " fill="#EA423E" transform="translate(235.081298828125,25.583740234375)"/>
<path d="M0 0 C26.73 0 53.46 0 81 0 C84.9544472 41.21534133 88.90516059 82.43103274 92.84765038 123.64751922 C93.31327029 128.51526074 93.77893557 133.38299792 94.24462891 138.25073242 C94.33733796 139.21979681 94.43004702 140.18886119 94.52556545 141.18729117 C96.0261293 156.87116547 97.53036748 172.5546853 99.03596765 188.23807684 C100.58116369 204.33478825 102.12240171 220.4318751 103.65997839 236.52931613 C104.60860518 246.45951586 105.56030531 256.38941112 106.51595867 266.31893715 C107.17129429 273.13117475 107.82277943 279.94377379 108.47126353 286.756667 C108.84532194 290.68528131 109.22105131 294.61371648 109.60136223 298.54173088 C109.95004106 302.14342751 110.29384284 305.7455564 110.6338982 309.34807714 C110.81533176 311.25699964 111.00186842 313.16543504 111.18863344 315.0738433 C111.2966187 316.2278484 111.40460397 317.38185349 111.51586151 318.57082844 C111.65711747 320.04547234 111.65711747 320.04547234 111.80122709 321.54990703 C112.07830205 326.35908532 112 331.18284665 112 336 C85.6 336 59.2 336 32 336 C30.52703503 333.05407005 30.52897916 329.96053257 30.24871826 326.72149658 C30.17872258 325.95216278 30.10872689 325.18282897 30.03661013 324.39018202 C29.88145091 322.68099903 29.72809947 320.97165126 29.57625818 319.26217031 C29.14115641 314.3694967 28.69150298 309.47814653 28.24450684 304.58654785 C28.1466993 303.51208963 28.04889176 302.43763141 27.94812036 301.33061385 C26.75880231 288.29227758 25.51121195 275.25951424 24.26499492 262.22651714 C23.92997564 258.72168181 23.5955474 255.21679009 23.26107407 251.71190262 C22.77161561 246.58344201 22.2819846 241.45499793 21.79214023 236.32657416 C20.82835057 226.23599426 19.86604308 216.14527343 18.90423584 206.05450439 C18.75123183 204.44933214 18.59822758 202.8441599 18.44522309 201.23898768 C18.13618867 197.99685982 17.82716161 194.75473126 17.51813841 191.51260233 C16.73305896 183.27597007 15.94790593 175.03934482 15.16259766 166.80273438 C15.08411306 165.97955252 15.00562847 165.15637066 14.92476556 164.3082439 C13.64299911 150.86518001 12.35917031 137.42231373 11.07471195 123.97950682 C9.74778328 110.09162031 8.4233657 96.20349589 7.10120845 82.31515431 C6.2893384 73.78792821 5.47547617 65.26089711 4.65900913 56.73410991 C4.10221833 50.91735976 3.54783774 45.1003831 2.99536285 39.28322145 C2.67702175 35.93209903 2.35724782 32.58112976 2.03530312 29.23035049 C1.68652691 25.59857163 1.34180821 21.96642971 0.99810791 18.33416748 C0.89578079 17.2788592 0.79345366 16.22355093 0.68802571 15.13626361 C0.59644083 14.15955998 0.50485594 13.18285635 0.41049576 12.17655563 C0.33064446 11.33979821 0.25079316 10.50304079 0.16852212 9.64092708 C-0.03616097 6.43331775 0 3.21413328 0 0 Z " fill="#C6312E" transform="translate(344,152)"/>
<path d="M0 0 C2.4893836 0.54006859 4.65362553 0.44937447 7.16870117 0.10375977 C7.95760742 0.00450195 8.74651367 -0.09475586 9.55932617 -0.19702148 C11.12711598 -0.45399366 12.68866165 -0.75262957 14.24047852 -1.09301758 C33.96413279 -4.70692324 54.36990322 -0.82244493 70.91870117 10.41625977 C86.86964965 22.47146045 97.37015762 38.70053366 100.91870117 58.41625977 C101.29844403 63.77094572 101.27112586 69.10016138 101.21166992 74.46313477 C101.20605954 75.97055637 101.20179628 77.47798352 101.19880676 78.9854126 C101.1874712 82.91125168 101.15810465 86.8367462 101.12469482 90.76245117 C101.09374722 94.78502749 101.08024922 98.80766066 101.06518555 102.83032227 C101.03322123 110.69247549 100.98054905 118.55428479 100.91870117 126.41625977 C95.63870117 126.41625977 90.35870117 126.41625977 84.91870117 126.41625977 C84.89888184 124.79316895 84.8790625 123.17007813 84.85864258 121.49780273 C84.78199425 115.41823017 84.69337267 109.33887867 84.60131836 103.25952148 C84.56327148 100.6391235 84.52837847 98.01867759 84.49682617 95.39819336 C84.45064351 91.60977157 84.39274175 87.82167289 84.33276367 84.03344727 C84.31543686 82.3044368 84.31543686 82.3044368 84.29776001 80.54049683 C83.967095 61.90007417 80.91053452 45.51210323 67.91870117 31.41625977 C58.8662922 23.07285066 46.81464682 16.16778998 34.16870117 16.35375977 C32.96987305 16.36729492 32.96987305 16.36729492 31.74682617 16.38110352 C31.14354492 16.39270508 30.54026367 16.40430664 29.91870117 16.41625977 C30.41499023 16.86614258 30.9112793 17.31602539 31.42260742 17.77954102 C44.02540818 29.71274325 52.72828412 46.7613652 53.27705383 64.29194641 C53.28506177 66.36113141 53.27727772 68.43042208 53.25585938 70.49951172 C53.25641327 71.64094131 53.25696716 72.78237091 53.25753784 73.95838928 C53.25727974 76.41366259 53.2504817 78.86894248 53.23769569 81.32418251 C53.21920537 85.21280618 53.22202129 89.10089525 53.23075867 92.98954773 C53.25349545 104.03721726 53.24163553 115.0847024 53.20361328 126.13232422 C53.18054608 132.90903333 53.18902635 139.68520812 53.21407127 146.46190453 C53.21766367 149.03788338 53.21000843 151.61390372 53.19082069 154.18981361 C53.16452397 157.78713338 53.17490423 161.38265149 53.19335938 164.97998047 C53.17642532 166.03934814 53.15949127 167.09871582 53.14204407 168.19018555 C53.20623423 173.3202852 53.48487584 176.53426107 56.90153503 180.50602722 C57.90385308 181.47962147 58.90895208 182.45037468 59.91870117 183.41625977 C61.64915563 186.87716868 61.26449192 190.62536864 60.91870117 194.41625977 C59.09335526 199.68948129 56.31150914 202.21317062 51.91870117 205.41625977 C47.8482277 206.77308426 44.174784 206.94098231 39.91870117 206.41625977 C34.61517837 203.71446513 30.82037819 200.12129081 28.91870117 194.41625977 C28.36601936 189.65957207 28.43518249 186.3166049 30.73120117 182.04125977 C32.91870117 179.41625977 32.91870117 179.41625977 34.53203106 178.02036762 C36.32376776 175.94767643 36.29352149 174.83989029 36.29292297 172.12553406 C36.29993729 171.24974197 36.3069516 170.37394989 36.31417847 169.47161865 C36.30653473 168.51322083 36.29889099 167.554823 36.29101562 166.56738281 C36.29649162 165.04964012 36.29649162 165.04964012 36.30207825 163.50123596 C36.31020735 160.14331456 36.29654338 156.78587258 36.28198242 153.42797852 C36.28146366 151.08925883 36.28198199 148.75053871 36.28349304 146.41181946 C36.28340318 141.49811327 36.27295422 136.58457067 36.25488281 131.67089844 C36.23233295 125.40476607 36.23162521 119.13887569 36.23840046 112.87271404 C36.24176262 108.03479403 36.23506601 103.19692804 36.22527122 98.35901833 C36.22144716 96.0511993 36.22025929 93.74337423 36.22185707 91.4355526 C36.22441932 69.2753828 35.91928415 48.63844414 19.91870117 31.41625977 C12.74798739 24.53952537 12.74798739 24.53952537 3.91870117 21.41625977 C1.6335644 22.5920775 -0.26460658 23.74226534 -2.33129883 25.22875977 C-2.90759033 25.63892334 -3.48388184 26.04908691 -4.07763672 26.47167969 C-15.04297947 34.58157649 -22.69456426 46.96375583 -25.08129883 60.41625977 C-26.09224679 68.14621931 -26.28678882 75.85582566 -26.39770508 83.64282227 C-26.42887672 85.48606583 -26.42887672 85.48606583 -26.4606781 87.36654663 C-26.52560333 91.25806562 -26.58479121 95.14964701 -26.64379883 99.04125977 C-26.68703838 101.69360974 -26.73065433 104.34595361 -26.7746582 106.99829102 C-26.88122559 113.47088475 -26.98265061 119.94354069 -27.08129883 126.41625977 C-32.36129883 126.41625977 -37.64129883 126.41625977 -43.08129883 126.41625977 C-43.17229352 117.80921154 -43.24540974 109.20254812 -43.28854752 100.59514523 C-43.30926949 96.59677449 -43.3372985 92.59875475 -43.38305664 88.60058594 C-43.42707294 84.72962139 -43.45055103 80.8589907 -43.4608078 76.98779488 C-43.46810067 75.52365436 -43.48233592 74.05952851 -43.50421906 72.59553337 C-43.79626815 52.21439731 -37.76110178 34.7095883 -23.58691406 19.91943359 C-22.42926943 18.74090837 -21.25696998 17.5768028 -20.08129883 16.41625977 C-32.688023 15.5615666 -43.02299863 20.09965752 -53.08129883 27.41625977 C-53.71551758 27.84293945 -54.34973633 28.26961914 -55.00317383 28.70922852 C-64.69957768 35.93705249 -70.80086882 48.85122187 -73.08129883 60.41625977 C-73.97431409 67.33488148 -74.24699935 74.20136404 -74.29003906 81.17089844 C-74.29982285 82.19499313 -74.30960663 83.21908783 -74.31968689 84.2742157 C-74.34934898 87.62754049 -74.37093191 90.98082677 -74.38989258 94.33422852 C-74.39646441 95.48577234 -74.40303623 96.63731617 -74.40980721 97.82375526 C-74.44225592 103.90723062 -74.46675407 109.99068939 -74.48632812 116.07421875 C-74.50420138 121.09954075 -74.53913945 126.12430802 -74.58886719 131.14941406 C-74.64900998 137.23642475 -74.67979264 143.32291793 -74.68950081 149.41021156 C-74.69805585 151.7238806 -74.71687494 154.03753573 -74.74624443 156.35103416 C-74.78512009 159.58457537 -74.78619944 162.81608562 -74.77832031 166.04980469 C-74.79832092 167.00010559 -74.81832153 167.95040649 -74.83892822 168.92950439 C-74.76457185 175.73425206 -72.85174747 178.72683541 -68.08129883 183.41625977 C-66.35084437 186.87716868 -66.73550808 190.62536864 -67.08129883 194.41625977 C-68.90664474 199.68948129 -71.68849086 202.21317062 -76.08129883 205.41625977 C-80.1517723 206.77308426 -83.825216 206.94098231 -88.08129883 206.41625977 C-93.38482163 203.71446513 -97.17962181 200.12129081 -99.08129883 194.41625977 C-99.63398064 189.65957207 -99.56481751 186.3166049 -97.26879883 182.04125977 C-95.08129883 179.41625977 -95.08129883 179.41625977 -93.46781826 178.04841995 C-91.60371469 175.85406511 -91.70751303 174.53278495 -91.70948792 171.67669678 C-91.70273041 170.70138 -91.6959729 169.72606323 -91.68901062 168.72119141 C-91.69672989 167.65215576 -91.70444916 166.58312012 -91.71240234 165.48168945 C-91.70863586 164.35442444 -91.70486938 163.22715942 -91.70098877 162.06573486 C-91.69454302 159.61197492 -91.6948987 157.15819002 -91.70117378 154.70442963 C-91.7102705 150.81012824 -91.70007215 146.91630988 -91.68455505 143.02203369 C-91.64838095 133.33860084 -91.64211368 123.65517399 -91.64465332 113.97167969 C-91.64652352 105.80766758 -91.63242689 97.64401748 -91.59617424 89.48007965 C-91.58541642 85.66312035 -91.59744608 81.84666674 -91.61000061 78.02972412 C-91.57476696 55.11128918 -87.53960317 35.76955283 -70.85473633 19.06469727 C-51.70928759 0.78214199 -26.04327957 -6.53351588 0 0 Z " fill="#4F5558" transform="translate(235.081298828125,25.583740234375)"/>
<path d="M0 0 C10.56 0 21.12 0 32 0 C35.45575228 33.44827905 38.76012705 66.90870911 41.94940972 100.38340235 C42.3067037 104.13245621 42.66447131 107.88146459 43.02239037 111.63045883 C44.21174549 124.0883291 45.39980696 136.54632175 46.586045 149.0044892 C46.64893189 149.66494136 46.71181878 150.32539351 46.77661133 151.00585938 C46.83957735 151.66714564 46.90254336 152.3284319 46.96741744 153.00975715 C47.99904679 163.8433031 49.03401681 174.67652716 50.07039652 185.50961961 C51.14430304 196.73538028 52.21568866 207.96137924 53.28462666 219.18761432 C53.8810549 225.45100055 54.47849588 231.71428601 55.07851601 237.97732925 C55.6388065 243.82657387 56.19594414 249.67611024 56.75063515 255.52588844 C56.954278 257.66780115 57.15904861 259.80960698 57.3650322 261.95129585 C57.64589242 264.87334687 57.92267522 267.79575664 58.19844055 270.71829224 C58.28063082 271.56328754 58.36282108 272.40828284 58.44750196 273.27888405 C59.7250804 286.97304019 59.7250804 286.97304019 56.8671875 290.515625 C56.39716309 291.11818115 55.92713867 291.7207373 55.44287109 292.34155273 C54.92547363 292.97134033 54.40807617 293.60112793 53.875 294.25 C52.77970956 295.64071526 51.68603138 297.0327014 50.59375 298.42578125 C50.01238281 299.15877441 49.43101562 299.89176758 48.83203125 300.64697266 C44.9352641 305.65190893 41.26139087 310.82727904 37.54638672 315.96777344 C36.69971436 317.12647949 36.69971436 317.12647949 35.8359375 318.30859375 C35.33626465 318.99751709 34.8365918 319.68644043 34.32177734 320.39624023 C33 322 33 322 31 323 C29.41696077 315.07413149 28.40713882 307.1895994 27.65853882 299.14532471 C27.47834102 297.27040993 27.47834102 297.27040993 27.29450285 295.35761809 C26.96414519 291.91889843 26.63961923 288.47965054 26.31612206 285.04027963 C25.96510625 281.31946016 25.60860773 277.59916535 25.25282288 273.87879944 C24.55798081 266.60381116 23.868188 259.32835272 23.18017648 252.05271563 C22.37834017 243.57514706 21.57169607 235.09803799 20.76492329 226.62093803 C19.32564584 211.49587659 17.8910627 196.37037352 16.45898438 181.24462891 C15.06999506 166.57400775 13.67715729 151.90375831 12.28027344 137.23388672 C10.7577906 121.24493616 9.23737655 105.25579151 7.72061503 89.2662971 C7.5588778 87.56130768 7.39713985 85.85631832 7.23540115 84.15132904 C7.15583193 83.31250526 7.07626271 82.47368148 6.9942823 81.60943879 C6.4338246 75.70240209 5.87194338 69.79550179 5.30955124 63.88864899 C4.62442264 56.69203972 3.94171052 49.49520593 3.26204966 42.29807815 C2.91533567 38.62719262 2.56758142 34.95641376 2.21697044 31.28589821 C1.83689544 27.30651218 1.46193847 23.3266605 1.0874939 19.34674072 C0.920284 17.60847169 0.920284 17.60847169 0.74969614 15.83508611 C0.64991106 14.7654968 0.55012599 13.6959075 0.44731712 12.5939064 C0.36030615 11.67600964 0.27329518 10.75811287 0.18364751 9.81240106 C-0.02951653 6.54798022 0 3.27137316 0 0 Z " fill="#C7312E" transform="translate(344,152)"/>
<path d="M0 0 C5.28 0 10.56 0 16 0 C20.25540202 29.33648359 22.59016734 58.94843921 24.9609375 88.48706055 C25.53241918 95.58657496 26.14808147 102.67927324 26.83154297 109.76879883 C27.6824148 118.65032387 28.5228648 127.53280515 29.35872674 136.41575277 C30.8755634 152.53537546 32.39947983 168.65432067 33.92790985 184.77284813 C34.80561088 194.03084927 35.68077484 203.289078 36.55029297 212.54785156 C37.31446566 220.68480221 38.08328308 228.82129839 38.85766935 236.95728362 C39.26575978 241.24654429 39.67155515 245.53599333 40.07173157 249.82600021 C40.44688389 253.84701844 40.82824831 257.8673994 41.21434975 261.8873806 C41.35451079 263.35811629 41.49242309 264.82906836 41.62787437 266.30024529 C41.81360689 268.31380693 42.00835096 270.32653119 42.20349121 272.33920288 C42.30966515 273.46324713 42.41583908 274.58729137 42.52523041 275.74539757 C43.53548405 282.67080733 45.3326389 287.06366516 50.25 292 C51.33346607 293.13008108 52.41679361 294.260295 53.5 295.390625 C54.06976563 295.97650391 54.63953125 296.56238281 55.2265625 297.16601562 C58.27704573 300.32064531 61.25981141 303.5383459 64.25 306.75 C65.13546509 307.69782349 65.13546509 307.69782349 66.03881836 308.66479492 C80 323.62194346 80 323.62194346 80 336 C53.6 336 27.2 336 0 336 C-2.18633406 331.62733187 -2.15765495 327.71101252 -1 323 C2.9655572 315.95195643 8.77367507 309.77608819 14.00585938 303.65234375 C16.00147569 301.29794317 17.93826927 298.90291637 19.875 296.5 C20.49971191 295.80261719 21.12442383 295.10523438 21.76806641 294.38671875 C25.63803729 289.52048518 26.2890517 285.96697951 25.80726624 279.79641724 C25.75290093 279.06448438 25.69853562 278.33255152 25.64252287 277.57843888 C25.44710016 275.05038268 25.22590928 272.52550923 25 270 C24.91952132 269.0764174 24.83904264 268.15283481 24.75612521 267.20126486 C24.07721225 259.47623688 23.33599755 251.75751302 22.59155273 244.03857422 C22.34482885 241.45635043 22.09838693 238.8740997 21.85220337 236.29182434 C21.32484753 230.76437042 20.79533636 225.23712655 20.26437187 219.71001816 C19.49605362 211.71151261 18.73182803 203.71261986 17.96867812 195.71361972 C16.7290591 182.72098449 15.48719074 169.72856543 14.2434082 156.73632812 C14.16920834 155.96124614 14.09500847 155.18616415 14.01856012 154.38759483 C13.3405347 147.30526234 12.66235435 140.22294469 11.9841156 133.14063263 C11.5314457 128.41374573 11.07881266 123.6868553 10.6262207 118.95996094 C10.55180854 118.18280522 10.47739637 117.40564951 10.40072929 116.60494362 C9.15985295 103.64448364 7.92156253 90.68377788 6.68515354 77.72289097 C5.92373251 69.74245001 5.15999939 61.76223679 4.39326049 53.78230496 C3.80677005 47.6765706 3.22363888 41.57051976 2.64174271 35.46434593 C2.40263778 32.96124601 2.16239238 30.45825472 1.92092705 27.95538139 C1.59169604 24.54116483 1.26653068 21.12658445 0.94236755 17.71188354 C0.84577597 16.72055007 0.74918438 15.72921659 0.64966577 14.70784271 C0.56319758 13.78825621 0.47672939 12.86866972 0.38764095 11.92121696 C0.31223896 11.13415867 0.23683697 10.34710037 0.15915006 9.53619182 C-0.03995647 6.36325956 0 3.17917325 0 0 Z " fill="#A82A27" transform="translate(376,152)"/>
<path d="M0 0 C0.99 0.33 1.98 0.66 3 1 C4.47686111 1.09247381 5.95775501 1.12999071 7.4375 1.125 C8.19933594 1.12757813 8.96117187 1.13015625 9.74609375 1.1328125 C12.32092715 1.05084425 12.32092715 1.05084425 16 0 C16 13.2 16 26.4 16 40 C17.65 40.66 19.3 41.32 21 42 C25.2934515 44.14263229 28.78616743 46.40673429 32 50 C33.48586025 54.92090341 33.29096722 59.69793219 33.07421875 64.78125 C33.05366916 66.2046504 33.03802672 67.6281293 33.02705383 69.05163574 C32.98530217 72.77575349 32.87750954 76.49505479 32.75531006 80.21728516 C32.62229161 84.69513385 32.57236893 89.17460553 32.50832367 93.65386963 C32.40209398 100.43924953 32.19128842 107.21409161 32 114 C16.16 114 0.32 114 -16 114 C-16.4411969 98.34865129 -16.4411969 98.34865129 -16.53710938 91.640625 C-16.60270435 87.07472922 -16.67999919 82.51127517 -16.82983398 77.94726562 C-16.94998355 74.26412959 -17.01524483 70.58361162 -17.04364967 66.89866638 C-17.06386887 65.49815131 -17.10336181 64.097769 -17.16303062 62.69837952 C-17.6089908 51.79895229 -17.6089908 51.79895229 -13.65371704 47.37670898 C-9.2723678 44.09932863 -5.08922329 42.03568932 0 40 C0 26.8 0 13.6 0 0 Z " fill="#F6AF30" transform="translate(144,230)"/>
<path d="M0 0 C4.25322449 3.31958985 7.71876869 6.8578516 11.21484375 10.9609375 C12.90792616 12.89483032 14.66473328 14.70168496 16.5 16.5 C20.21377847 20.15562086 23.61437264 24.04185528 27 28 C28.98 30.31 30.96 32.62 33 35 C13.53 35 -5.94 35 -26 35 C-21.99269959 28.98904939 -17.97273126 23.19335075 -13.5625 17.5 C-12.99700439 16.76531494 -12.43150879 16.03062988 -11.84887695 15.27368164 C-10.23586518 13.17989278 -8.61887412 11.08925803 -7 9 C-6.20851563 7.97777344 -5.41703125 6.95554687 -4.6015625 5.90234375 C-3.07144416 3.93192605 -1.53859225 1.96380319 0 0 Z " fill="#C6302D" transform="translate(412,453)"/>
<path d="M0 0 C0.99 0.33 1.98 0.66 3 1 C4.47686111 1.09247381 5.95775501 1.12999071 7.4375 1.125 C8.19933594 1.12757813 8.96117187 1.13015625 9.74609375 1.1328125 C12.32092715 1.05084425 12.32092715 1.05084425 16 0 C16 12.87 16 25.74 16 39 C12.535 37.02 12.535 37.02 9 35 C6.27102833 35.49154083 6.27102833 35.49154083 4 37 C2.68 37.66 1.36 38.32 0 39 C0 26.13 0 13.26 0 0 Z " fill="#EAA62E" transform="translate(144,230)"/>
</svg>
